<svg xmlns="http://www.w3.org/2000/svg" viewBox="0 0 24 24" fill="currentColor"><path d="M12 0C5.383 0 0 5.383 0 12s5.383 12 12 12 12-5.383 12-12S18.617 0 12 0zm0 2.4c5.293 0 9.6 4.307 9.6 9.6s-4.307 9.6-9.6 9.6S2.4 17.293 2.4 12 6.707 2.4 12 2.4zm0 1.44c-4.507 0-8.16 3.653-8.16 8.16s3.653 8.16 8.16 8.16 8.16-3.653 8.16-8.16S16.507 3.84 12 3.84zm0 1.44c3.72 0 6.72 3 6.72 6.72s-3 6.72-6.72 6.72-6.72-3-6.72-6.72 3-6.72 6.72-6.72zm0 2.88a3.84 3.84 0 100 7.68 3.84 3.84 0 000-7.68zm0 1.44a2.4 2.4 0 110 4.8 2.4 2.4 0 010-4.8z"/></svg>